<?xml version="1.0" encoding="utf-8"?>
<!-- Generator: Adobe Illustrator 23.0.3, SVG Export Plug-In . SVG Version: 6.00 Build 0)  -->
<svg version="1.1" id="logosvg.com" xmlns:svg="http://www.w3.org/2000/svg"
	 xmlns="http://www.w3.org/2000/svg" xmlns:xlink="http://www.w3.org/1999/xlink" x="0px" y="0px" viewBox="0 0 400 300"
	 style="enable-background:new 0 0 400 300;" xml:space="preserve">
<style type="text/css">
	.st0{fill:#E64415;}
</style>
<path id="logo" class="st0" d="M12.4,175v-8h3.9l0,0v-33.7h-3.9l0-8.1L41,125c0,0,1.3,0,2.4,0.7c1,0.6,1.5,1.1,2.2,2.2
	c0.6,1.1,0.7,2.2,0.7,2.2l0,39.3c0,3-2.6,5.5-5.4,5.5C30.7,174.8,22.5,175.2,12.4,175z M37,166.9c0-10.8,0-22.1,0-33.7l-11.3,0.1
	c0,11.6,0,24.3,0,33.7H37z M51.8,166.9c0,0,0,0,3.6,0c0,0,0-33.3,0-33.7h-3.6V125l34,0.1l0,7.5l0,7.5h-9.2c0-2.2,0-4.6,0-6.8
	l-11.7,0v11.7l15.1,0v8.1c-6.7,0-4.9,0-15.1,0l0,14c3.5,0,8.3,0,11.7,0l0-9.3h9.2V175h-34L51.8,166.9z M90.4,175v-8h4.5v-33.7
	c-4.5,0-4.5,0-4.5,0V125c0,0,20.5,0,29.4,0c3.6,0,5.6,2.8,5.6,5.5l-0.1,6.1c0,6.5,0.1,6,0.1,7c0,2.6-1.9,4.5-3.4,5.1
	c-1.3,0.5-2.9,0.4-1.6,0.4c1.7,0,4.9,1.9,4.9,5.5l0,12.3l3.8,0l0,8L112,175v-8h3.6v-14c-3.6,0-7.7,0-11.4,0v14h3.7v8
	C107.8,175,94.9,175,90.4,175z M115.6,144.8l0.1-11.7c-7.9,0.1-7.9,0.1-11.5,0.1c0,0-0.2,11.4,0,11.6
	C107.8,144.8,112.7,145,115.6,144.8z M152.4,175c-3.5,0-5.6-3.2-5.6-5.5c0-4.2,0-11.9,0-11.9l9.2,0c0-0.1,0.1,9.3,0.1,9.3l11.1,0
	c-0.1,0-0.1-9.3-0.1-14h-20.4l0-22.4c0-3.3,3.1-5.4,5.5-5.5c6.7,0,19,0,19,0c3.3,0,5.6,2.7,5.6,5.5l0,9.4h-9.7l0.1-6.7
	c-3.7,0-11.1,0-11.1,0s-0.1,11.3,0.2,11.6l20.6,0.1c0,8.3,0,16.4,0,24.6c0,3.3-3,5.5-5.7,5.5c-1.6,0-5.3,0-9.3,0
	C158.3,174.9,154.3,175,152.4,175z M182.1,166.9h3.8l0-16.8l0-16.9l-3.8,0l0-8.2l28.9,0c2.9,0,5.5,2.3,5.5,5.5c0,3.5,0,8.3,0,8.3
	v8.5c0,3.2-2.6,5.5-5.6,5.5l-2.6,0c-13.6,0.1-9.1,0.1-12.6,0.1v14h3.5v8h-17.1V166.9z M207,144.8c0-4.9,0-11.6,0-11.6h-11.4
	c0.1,0,0,6.7,0,11.6C195.7,144.8,206.9,144.9,207,144.8z M218.9,166.9h3.6l0-33.7l-3.6,0l0-8.2l16.7,0v8.2H232v33.7h3.6l0,8l-16.7,0
	V166.9z M240,166.9l3.5,0l0-33.7H240V125h34v14.9h-9.2v-6.7l-11.7,0c0,0,0,6.7,0,11.6h15.1v8c-3.4,0-15.1,0-15.1,0v14h11.7l0-9.3
	l9.1,0.1v8.6v8.6l-34,0.1L240,166.9z M284.6,175c-4.3,0-5.8-3.7-5.8-5.5c0-1.8,0,3.1,0.1-19.8l0-19.5c0-2.1,2.1-5.1,5.5-5.1
	c6.7,0,13.2-0.1,19.3-0.1c3.1,0,5.4,2.6,5.4,5.6l0,9.4l-9.9-0.1v-6.7l-11.1,0l0,33.7h11.1c0-4.7,0-9.4,0-14h-7.6v-8H309l0,30.1
	l-12.9,0C291.4,174.9,289,175,284.6,175z M314.1,175v-8h3.5v-33.7h-3.5V125l34,0l0,14.9h-9.2v-6.7h-11.5c0,6.7,0,6.7,0,11.6
	l14.9,0.1l0,8c-3.3,0-14.8,0-14.8,0v14h11.5l0-9.3h9.2V175C314.1,175,314.1,175,314.1,175z M353.5,167l3.8-0.1c0-9.3,0-22.1,0-33.7
	h-3.9l0-8.2l17.5,0v8.2h-4.1v33.7h11.5v-9.3h9.2V175h-34.1L353.5,167z"/>
</svg>
